<?xml version="1.0" encoding="UTF-8"?>
<svg id="Layer_2" xmlns="http://www.w3.org/2000/svg" version="1.1" viewBox="0 0 127.6 169.2">
  <!-- Generator: Adobe Illustrator 29.8.3, SVG Export Plug-In . SVG Version: 2.1.1 Build 3)  -->
  <defs>
    <style>
      .st0 {
        fill: #ea7196;
      }

      .st1 {
        fill: #fff;
      }
    </style>
  </defs>
  <path class="st0" d="M107.8,52.9c.7.4,4,1.4,3.9,0-.1-1.3-4.3-5.7-5.5-6.5h0c-.4-.3-.7-.5-1.2-.4,0,.6.5,1,.6,1.6.4,2.4-.7,3.8,2.1,5.3Z"/>
  <g>
    <path class="st1" d="M37.4,156.7c-1.5-4.9-1-23.8-1.2-34.5-9.2-2.7-17.2-7.9-23.4-15.2v45c-.1,5.4-1.6,6.5-2.6,8.3-2.4,4.5-5.6,5.3-10.6,5.5v3.2s50.4,0,50.4,0v-3.2c-6,0-10.8-3.3-12.6-9.2Z"/>
    <path class="st1" d="M116.2,53.5c-.3-1.5.3-2.3.3-3.5,0-2.2-4.7-5.8-6.2-7.8-1.1-1.6-4-9.9-5.1-11.5-1.8-2.7-3.8-4.7-6.5-6.2-.8-.5-1.7-.9-2.7-1.2.7.8,1.7,2.9,2.7,5.2,1.2,2.7,2.2,5.6,2.5,6.8,0,.4.4,1.4-.3,1.3-.6-1.5-1.4-2.8-2.2-4-9-12.7-30.1-9.9-34.8-27.2-.5-1.7-.7-3.5-.6-5.2-.7-.9-1.4,2-1.5,2.3-2.3,8.9,1.9,17.2,9.1,22.3,6,4.3,15,6,17.6,13.9-6.4-7.7-17.4-8.2-24-15.8-1.2-1.4-2.9-4.8-4.1-5.5-2.7-1.3-8.4-1.8-10.5-1.5l-11.4,1.2,7.5,1.9c.6,0,5.4,2.9,4.5,3.7-11.4-1.2-24.3.3-33.8,7.3-.8.6-2.5,1.7-2.7,2.7,3.6-1.9,8.5-2.9,12.4-1.8.4,0,.9,0,.8.6C15.3,36.2,4,43.5,0,56.4c0,1.2.4.3.7,0,3-3.5,5.9-6.1,10.5-7.3l-4.5,6.5C1.7,63.7-.8,72.3,0,82c.2,1.8.5,5.1,2,6.2-.1-2.7,0-4.9.8-7.4.2-.6,2.8-6.2,3.6-5.4-.9,5.9.4,12.6,2.4,18.2,5.1,14.1,17.2,23.5,31.6,26.6-2-1.9-6.8-5.1-7.6-7.8-.5-1.6,2.5,1,2.8,1.2,9.9,5.7,18.7,7.1,25.9,16.9,12.8,17.4,17.6,40.6,44.7,38.2,11.6-1,20.3-11.8,20.6-23.2l-3,6c-3.2,4.8-9.6,8.5-15.5,6.7h0c-4-1.2-5.8-4.5-7.9-7.7-8.5-12.5-15.6-25.9-24.2-38.2l-.2-.8c11.4-5,17.1-18.7,15.6-30.6-1.7-14.1-11.3-23.9-25.2-26.5-4.8-.9-16.2-1.2-21.1-.6-2.5.3-5.9,5.7-6.9,7.9-1.6,3.5-2.5,7.5-2.5,11.4h22.6c.7,0,3.2.8,4.1,1.1,8.9,3.5,9.3,17.8,1.2,22.2-3.5,1.9-7.6,2-11.5,1.7,10.1,5,19.5,10.9,24.9,21.2,7.3,13.9,2.5,34.3,20.1,41.6l4.7,1.5c-7,.1-13.9-4.4-17.6-10.2-6.5-10.2-4.4-22.7-10.9-33.6-12.5-20.8-44.3-18-48.6-44.7-3.8-23.2,15.6-39.1,37.5-38.5,0,.6-1.4.6-1.9.7-15.3,2.4-30,11-32.5,27.6-1.8,12.3,3.3,22.7,13.8,29l-5.1-6.9c-12.3-23.9,10.5-47.4,35.3-40.5,5.4,1.5,10.6,4.9,13.6,9.6-.3,1.5-6.5.2-7.4-1-.3,0-.3.4-.2.6.4.8,4,4.1,4.9,4.7,5.1,3.2,10.7,2.4,15.3,6.7,2.9,2.8,8.1,11.7.6,11.4,4.5,3.8,14.5,4.3,15.6-3-1.2,1.1-2.5.8-4,.8l1.6-3.2c-4.1,1.3-4.8-.2-6.2-3.6-1.2-2.9-1.6-6.3-3.8-8.8,2.6.7,12.9,3.6,13.2,6.6l-1.2,3.4c.5.5,6.8-3.4,6.4,1-.1,1.1-1.4,2-1,3,6.4-3.1,9.7-7.3,6.2-14.4-1.5,1.7-4.4.3-6.5-1.5-1.5-1.3-2.8-2.9-3-3.9ZM120.7,61.7c1.6,0,2.9,1.4,2.7,2.9-.3.3-3.7-1.9-2.7-2.9ZM106.2,46.4h0c1.2.8,5.4,5.2,5.5,6.5.1,1.4-3.2.4-3.9,0-2.8-1.5-1.8-2.9-2.1-5.3,0-.6-.6-1-.6-1.6.5,0,.8.2,1.2.4Z"/>
  </g>
</svg>