<?xml version="1.0" encoding="UTF-8"?>
<svg id="Layer_2" data-name="Layer 2" xmlns="http://www.w3.org/2000/svg" viewBox="0 0 275.84 123.19">
  <defs>
    <style>
      .cls-1 {
        fill: #1e4d5e;
      }

      .cls-2 {
        fill: none;
        stroke: #ededed;
        stroke-miterlimit: 10;
        stroke-width: .62px;
      }

      .cls-3 {
        fill: #fff;
      }

      .cls-4 {
        fill: #8de291;
      }

      .cls-5 {
        fill: #00ff67;
      }
    </style>
  </defs>
  <g id="Design_1" data-name="Design 1">
    <rect class="cls-1" width="275.84" height="123.19"/>
    <g>
      <g id="Revive">
        <path id="Plus" class="cls-4" d="M236.51,42.63h-19.4v-19.4c0-5.69-4.66-10.35-10.35-10.35h-6.62c-5.69,0-10.35,4.66-10.35,10.35v19.4h-19.4c-5.69,0-10.35,4.66-10.35,10.35v6.62c0,5.69,4.66,10.35,10.35,10.35h19.4v19.4c0,5.69,4.66,10.35,10.35,10.35h6.62c5.69,0,10.35-4.66,10.35-10.35v-19.4h19.4c5.69,0,10.35-4.66,10.35-10.35v-6.62c0-5.69-4.66-10.35-10.35-10.35Z"/>
        <g>
          <path class="cls-3" d="M52.52,101.33v-27.12h5.55v3.19h.88c.44-1.14,1.15-1.97,2.12-2.5.97-.53,2.17-.8,3.6-.8h3.25v5.12h-3.46c-1.83,0-3.34.5-4.51,1.51-1.17,1.01-1.76,2.56-1.76,4.65v15.95h-5.67Z"/>
          <path class="cls-3" d="M85.25,102.1c-2.75,0-5.15-.58-7.21-1.73-2.05-1.16-3.66-2.79-4.81-4.9-1.15-2.11-1.73-4.56-1.73-7.34v-.66c0-2.82.57-5.29,1.71-7.4,1.14-2.11,2.72-3.74,4.76-4.9,2.04-1.16,4.39-1.73,7.07-1.73s4.89.58,6.85,1.73c1.96,1.15,3.49,2.76,4.59,4.81,1.1,2.05,1.65,4.46,1.65,7.21v2.14h-20.85c.07,2.38.87,4.28,2.39,5.69,1.52,1.41,3.42,2.12,5.69,2.12,2.13,0,3.73-.48,4.81-1.43,1.08-.95,1.92-2.05,2.5-3.3l4.67,2.42c-.51,1.03-1.26,2.11-2.23,3.25-.97,1.14-2.25,2.09-3.82,2.86-1.58.77-3.59,1.15-6.05,1.15ZM77.33,85h15.02c-.15-2.05-.88-3.66-2.2-4.81-1.32-1.16-3.04-1.73-5.17-1.73s-3.86.58-5.2,1.73c-1.34,1.15-2.15,2.76-2.45,4.81Z"/>
          <path class="cls-3" d="M110.27,101.33l-9.13-27.12h6l7.21,22.94h.88l7.21-22.94h6l-9.13,27.12h-9.02Z"/>
          <path class="cls-3" d="M133.92,101.33v-27.12h5.67v27.12h-5.67Z"/>
          <path class="cls-3" d="M154.27,101.33l-9.13-27.12h6l7.21,22.94h.88l7.21-22.94h6l-9.13,27.12h-9.02Z"/>
          <path class="cls-3" d="M189.42,102.1c-2.75,0-5.15-.58-7.21-1.73-2.05-1.16-3.66-2.79-4.81-4.9-1.15-2.11-1.73-4.56-1.73-7.34v-.66c0-2.82.57-5.29,1.71-7.4,1.14-2.11,2.72-3.74,4.76-4.9,2.04-1.16,4.39-1.73,7.07-1.73s4.89.58,6.85,1.73c1.96,1.15,3.49,2.76,4.59,4.81,1.1,2.05,1.65,4.46,1.65,7.21v2.14h-20.85c.07,2.38.87,4.28,2.39,5.69,1.52,1.41,3.42,2.12,5.69,2.12,2.13,0,3.73-.48,4.81-1.43,1.08-.95,1.92-2.05,2.5-3.3l4.67,2.42c-.51,1.03-1.26,2.11-2.23,3.25-.97,1.14-2.25,2.09-3.82,2.86-1.58.77-3.59,1.15-6.05,1.15ZM181.5,85h15.02c-.15-2.05-.88-3.66-2.2-4.81-1.32-1.16-3.04-1.73-5.17-1.73s-3.86.58-5.2,1.73c-1.34,1.15-2.15,2.76-2.45,4.81Z"/>
        </g>
      </g>
      <g id="Logo">
        <circle class="cls-2" cx="136.99" cy="59.92" r="10.04"/>
        <g id="Cuicine_Clinic" data-name="Cuicine Clinic">
          <path class="cls-5" d="M134.75,57.1c-.64-.89-1.76-1.4-3.35-1.51-.03.36-.09,1.8.8,2.94.66.84,1.68,1.34,3.05,1.5,0-.02.01-.05.02-.08-.1-.3-.21-.58-.35-.85-.45-.89-1.12-1.71-2-2.2.45.22.86.54,1.21.91.5.52.9,1.13,1.18,1.8.01-.1.02-.21.02-.33-.03-.3-.05-.58-.06-.86-.08-.43-.23-.89-.53-1.3Z"/>
          <path class="cls-5" d="M136.75,54.81c-.82.94-1.21,2.22-1.18,3.81.06.34.07.66.06.93,0,.08.02.15.03.23.57-1.86,1.68-3.82,3.31-4.86-1.42.9-2.58,3.27-2.89,5.26,0,.02,0,.04,0,.05,1.29.08,2.37-.31,3.23-1.16,1.29-1.29,1.94-3.64,1.64-6.01-.45,0-2.76.11-4.19,1.75Z"/>
          <path class="cls-3" d="M131.43,63.58c-.33,0-.59-.1-.79-.29-.19-.19-.29-.47-.29-.83v-.63c0-.37.1-.64.29-.83.19-.19.46-.29.79-.29s.58.09.75.27c.17.18.26.43.26.75v.02h-.33v-.03c0-.21-.06-.38-.17-.51s-.28-.2-.52-.2-.42.07-.55.22c-.13.14-.2.34-.2.6v.65c0,.26.07.46.2.6.13.14.31.22.55.22s.41-.07.52-.2.17-.3.17-.51v-.06h.33v.05c0,.32-.09.56-.26.75-.17.18-.43.27-.75.27Z"/>
          <path class="cls-3" d="M133.72,63.56c-.14,0-.27-.03-.38-.09-.12-.06-.21-.15-.28-.27-.07-.12-.1-.27-.1-.44v-1.17h.31v1.14c0,.19.05.33.14.42s.23.13.39.13c.18,0,.34-.06.45-.18.12-.12.18-.3.18-.54v-.97h.31v1.93h-.3v-.33h-.06c-.04.09-.11.18-.22.25-.1.08-.25.11-.45.11Z"/>
          <path class="cls-3" d="M135.55,60.72c-.07,0-.13-.02-.17-.07-.05-.04-.07-.1-.07-.17s.02-.13.07-.17c.05-.04.1-.07.17-.07s.12.02.17.07.07.1.07.17-.02.13-.07.17c-.04.04-.1.07-.17.07ZM135.4,63.53v-2.57h.31v2.57h-.31Z"/>
          <path class="cls-3" d="M137.14,63.58c-.24,0-.44-.06-.61-.17s-.26-.29-.3-.52l.3-.07c.02.13.06.23.12.3.06.07.13.12.22.15.09.03.18.05.27.05.14,0,.26-.03.34-.09.08-.06.13-.14.13-.23s-.04-.17-.12-.21-.19-.07-.33-.1l-.16-.03c-.12-.02-.24-.05-.34-.1-.1-.04-.18-.11-.24-.18-.06-.08-.09-.17-.09-.29,0-.17.07-.31.2-.41.13-.1.31-.15.53-.15s.4.05.53.15c.14.1.22.24.26.42l-.29.07c-.02-.14-.08-.24-.17-.29-.09-.06-.2-.08-.33-.08s-.24.02-.31.07c-.08.05-.11.12-.11.22s.04.16.11.2.17.08.29.1l.16.03c.14.02.26.06.37.1.11.04.2.1.26.18.06.08.1.18.1.3,0,.19-.07.34-.21.44-.14.1-.33.15-.57.15Z"/>
          <path class="cls-3" d="M138.6,61.3c-.07,0-.13-.02-.17-.07-.05-.04-.07-.1-.07-.17s.02-.13.07-.17c.05-.04.1-.07.17-.07s.12.02.17.07.07.1.07.17-.02.13-.07.17c-.04.04-.1.07-.17.07ZM138.44,63.53v-1.93h.31v1.93h-.31Z"/>
          <path class="cls-3" d="M139.41,63.53v-1.93h.3v.33h.06c.04-.09.11-.18.22-.25.1-.07.25-.11.45-.11.14,0,.27.03.39.09s.21.15.27.27c.07.12.1.26.1.44v1.17h-.31v-1.14c0-.19-.05-.33-.14-.42s-.23-.13-.39-.13c-.19,0-.34.06-.46.18-.12.12-.18.3-.18.54v.97h-.31Z"/>
          <path class="cls-3" d="M142.71,63.58c-.19,0-.37-.04-.51-.12-.15-.08-.26-.2-.34-.35-.08-.15-.12-.32-.12-.52v-.05c0-.2.04-.37.12-.52.08-.15.19-.27.34-.35.14-.08.31-.12.5-.12s.34.04.48.12.25.19.33.33c.08.14.12.31.12.51v.14h-1.57c0,.21.08.37.2.49.13.12.28.18.47.18.17,0,.29-.04.38-.11.09-.08.16-.17.21-.27l.27.13c-.04.08-.09.16-.16.24-.07.08-.16.15-.27.21-.11.06-.25.08-.43.08ZM142.05,62.38h1.26c-.01-.18-.07-.32-.18-.42-.11-.1-.25-.15-.43-.15s-.32.05-.43.15c-.11.1-.18.24-.21.42Z"/>
          <path class="cls-3" d="M133.85,66.78c-.33,0-.59-.1-.79-.29-.19-.19-.29-.47-.29-.83v-.63c0-.37.1-.64.29-.83.19-.19.46-.29.79-.29s.58.09.75.27c.17.18.26.43.26.75v.02h-.33v-.03c0-.21-.06-.38-.17-.51s-.28-.2-.52-.2-.42.07-.55.22c-.13.14-.2.34-.2.6v.65c0,.26.07.46.2.6.13.14.31.22.55.22s.41-.07.52-.2.17-.3.17-.51v-.06h.33v.05c0,.32-.09.56-.26.75-.17.18-.43.27-.75.27Z"/>
          <path class="cls-3" d="M135.4,66.73v-2.76h.31v2.76h-.31Z"/>
          <path class="cls-3" d="M136.52,64.5c-.07,0-.13-.02-.17-.07-.05-.04-.07-.1-.07-.17s.02-.13.07-.17c.05-.04.1-.07.17-.07s.12.02.17.07.07.1.07.17-.02.13-.07.17c-.04.04-.1.07-.17.07ZM136.36,66.73v-1.93h.31v1.93h-.31Z"/>
          <path class="cls-3" d="M137.33,66.73v-1.93h.3v.33h.06c.04-.09.11-.18.22-.25.1-.07.25-.11.45-.11.14,0,.27.03.39.09s.21.15.27.27c.07.12.1.26.1.44v1.17h-.31v-1.14c0-.19-.05-.33-.14-.42s-.23-.13-.39-.13c-.19,0-.34.06-.46.18-.12.12-.18.3-.18.54v.97h-.31Z"/>
          <path class="cls-3" d="M139.91,64.5c-.07,0-.13-.02-.17-.07-.05-.04-.07-.1-.07-.17s.02-.13.07-.17c.05-.04.1-.07.17-.07s.12.02.17.07.07.1.07.17-.02.13-.07.17c-.04.04-.1.07-.17.07ZM139.75,66.73v-1.93h.31v1.93h-.31Z"/>
          <path class="cls-3" d="M141.6,66.78c-.19,0-.35-.04-.5-.12-.15-.08-.27-.2-.35-.35-.09-.15-.13-.33-.13-.53v-.04c0-.21.04-.39.13-.53.09-.15.2-.26.35-.34.15-.08.32-.12.5-.12s.34.03.47.1c.13.07.23.16.31.27.07.11.12.23.14.36l-.3.06c-.01-.09-.04-.18-.09-.26-.05-.08-.12-.14-.2-.19-.09-.05-.19-.07-.32-.07s-.24.03-.35.09-.18.14-.24.25c-.06.11-.09.24-.09.39v.04c0,.15.03.28.09.39.06.11.14.19.24.25s.22.09.35.09c.19,0,.34-.05.44-.15s.16-.22.19-.37l.31.07c-.03.13-.08.25-.16.36-.08.11-.18.2-.31.27-.13.07-.29.1-.47.1Z"/>
        </g>
      </g>
    </g>
  </g>
</svg>