<?xml version="1.0" encoding="UTF-8"?>
<svg id="Layer_2" data-name="Layer 2" xmlns="http://www.w3.org/2000/svg" viewBox="0 0 127.56 169.17">
  <defs>
    <style>
      .cls-1 {
        fill: #101820;
      }
    </style>
  </defs>
  <g id="Layer_9" data-name="Layer 9">
    <path class="cls-1" d="M50.46,169.17v-3.2c-6.04.08-10.84-3.33-12.62-9.21-1.48-4.9-.97-23.84-1.18-34.46-9.18-2.74-17.25-7.92-23.44-15.2v45.05c-.12,5.36-1.65,6.5-2.62,8.33-2.38,4.49-5.62,5.31-10.57,5.5l-.02,3.18h50.46Z"/>
    <path class="cls-1" d="M99.32,77.26c4.14,3.57,13.14,4.24,15.25-1.59.16-.44.29-.9.36-1.42-1.2,1.09-2.48.83-4,.8l1.6-3.2c-4.11,1.35-4.81-.23-6.2-3.61-1.2-2.9-1.57-6.28-3.81-8.8,2.61.69,12.9,3.6,13.22,6.61l-1.2,3.39c.46.46,6.83-3.41,6.4.96-.11,1.12-1.4,1.98-1,3.04,6.38-3.1,9.72-7.33,6.2-14.41-2.63,2.87-8.98-3.04-9.52-5.49-.34-1.53.33-2.35.33-3.53,0-2.2-4.74-5.75-6.19-7.82-1.1-1.57-4.03-9.88-5.12-11.52-1.97-2.94-4.2-5.05-7.21-6.53-.64-.31-1.3-.61-2.01-.87.52.61,1.25,2,2.01,3.64,1.4,3.03,2.89,6.93,3.21,8.39.09.4.41,1.41-.3,1.3-.77-1.9-1.76-3.51-2.9-4.93-9.35-11.65-29.54-9.45-34.15-26.29-.46-1.69-.69-3.45-.6-5.21-.72-.92-1.4,1.98-1.48,2.32-2.28,8.93,1.9,17.15,9.14,22.26,6.03,4.26,15,6,17.57,13.86-6.37-7.68-17.43-8.22-24.01-15.83-1.21-1.39-2.86-4.84-4.13-5.48-2.67-1.34-8.42-1.8-10.48-1.54l-11.43,1.23,7.48,1.93c.62.09,5.39,2.94,4.53,3.67-11.43-1.19-24.34.29-33.77,7.28-.83.62-2.48,1.67-2.67,2.74,3.57-1.93,8.47-2.87,12.42-1.81.37.1.9.1.79.6C15.73,36.28,4.49,43.58.41,56.45c-.06,1.22.43.27.73-.08,2.97-3.5,5.89-6.12,10.48-7.34l-4.47,6.54C2.15,63.73-.38,72.39.41,82.07c.15,1.8.55,5.09,1.99,6.21-.13-2.66-.04-4.88.79-7.42.2-.61,2.76-6.25,3.62-5.39-.86,5.92.37,12.6,2.4,18.23,5.06,14.06,17.18,23.53,31.64,26.62-2.05-1.87-6.78-5.14-7.6-7.81-.5-1.62,2.46.96,2.83,1.18,9.9,5.73,18.71,7.12,25.92,16.93,12.82,17.43,17.65,40.58,44.72,38.16,11.64-1.04,20.3-11.84,20.63-23.22l-3.04,5.97c-3.24,4.79-9.61,8.46-15.47,6.73-4.02-1.19-5.76-4.48-7.93-7.69-8.45-12.47-15.6-25.87-24.25-38.23l-.17-.82c11.37-5.02,17.08-18.7,15.61-30.64-1.73-14.07-11.34-23.9-25.2-26.46-4.79-.88-16.23-1.19-21.06-.6-2.45.3-5.91,5.7-6.93,7.88-1.65,3.52-2.5,7.45-2.46,11.36h22.63c.73,0,3.23.8,4.07,1.13,8.89,3.46,9.28,17.81,1.21,22.17-3.52,1.9-7.61,2.03-11.48,1.73,10.1,5,19.52,10.88,24.9,21.16,7.28,13.92,2.52,34.32,20.08,41.59l4.68,1.53c-7.05.13-13.92-4.37-17.63-10.2-6.48-10.19-4.36-22.7-10.88-33.57-12.47-20.79-44.29-17.96-48.65-44.66-3.78-23.15,15.63-39.1,37.52-38.51.03.58-1.45.61-1.92.68-15.31,2.37-30,11.03-32.47,27.6-1.83,12.27,3.28,22.67,13.76,28.99l-5.07-6.94c-12.26-23.9,10.47-47.37,35.31-40.51,5.36,1.48,10.61,4.9,13.62,9.6-.31,1.48-6.54.18-7.41-.99-.27-.09-.29.38-.19.59.35.79,4,4.11,4.92,4.69,4.96,3.1,10.46,2.41,15,6.45.1.09.21.17.31.27,2.13,2.01,5.4,7.2,4.25,9.84-.45,1.02-1.56,1.66-3.66,1.59ZM121.14,61.78c1.58-.08,2.86,1.36,2.7,2.92-.27.28-3.71-1.86-2.7-2.92ZM106.65,46.47c1.22.86,5.36,5.19,5.48,6.54.12,1.37-3.17.37-3.91-.02-2.79-1.47-1.76-2.94-2.13-5.3-.1-.64-.61-1.03-.64-1.65.5-.07.82.17,1.2.44Z"/>
  </g>
</svg>