<svg width="273" height="128" viewBox="0 0 273 128" fill="none" xmlns="http://www.w3.org/2000/svg">
<path d="M203.249 118.008L192.673 116.881H192.658C188.044 116.077 183.468 114.878 178.996 113.277C179.026 113.309 179.055 113.342 179.079 113.377C157.611 106.819 135.293 98.8189 113.129 101.127C88.7275 103.025 66.1011 117.595 40.6801 114.555C25.2995 112.867 10.7249 104.372 0 91.8067C46.7108 107.116 64.1333 78.6542 103.083 76.3228H113.295C141.214 76.3228 176.59 115.142 203.252 118.011L203.249 118.008Z" fill="url(#paint0_linear_2178_1311)"/>
<path d="M267.317 90.5666C250.511 109.714 226.844 118.983 203.267 118.011H203.249C176.589 115.139 141.211 76.3197 113.292 76.3197C99.2327 68.9159 83.8106 67.1924 68.4062 66.6051C78.3814 55.6715 92.2032 49.911 106.031 49.5965C138.351 49.1071 165.186 73.7301 194.444 83.5811C215.527 91.1984 238.272 91.059 260.465 90.4836C262.706 90.4658 264.958 90.4302 267.317 90.5666Z" fill="url(#paint1_linear_2178_1311)"/>
<path d="M37.592 15.6536C37.8054 14.6481 38.3833 13.9243 38.3833 13.9243C38.81 13.3904 39.2842 13.0997 39.708 12.8594C41.1838 12.0199 42.4878 11.5394 42.8878 11.3911C43.522 11.1538 44.7904 10.5872 47.3272 9.45412C48.394 8.97655 49.452 8.48712 50.507 7.98582C50.9841 7.74555 52.5074 7.03958 53.5565 7.71292C54.2855 8.17862 54.4514 9.08927 54.5581 9.63507C54.973 11.7975 55.6606 13.8976 56.0843 16.06C56.2414 16.8579 57.083 19.6373 58.7871 25.1902C59.8006 28.4916 59.7117 28.0052 61.1134 32.3804C61.5105 33.6233 62.3373 36.2751 63.4427 39.5706C64.8385 43.7323 65.5735 45.6485 67.1886 46.0964C67.4198 46.1617 68.214 46.3812 68.7889 45.9689C69.6957 45.3193 69.4083 43.5454 68.2614 38.3456C67.4761 34.786 67.0938 33.0033 66.5811 31.1079C65.9262 28.6815 65.2564 26.353 64.5748 24.1164C63.8932 21.8798 63.3331 19.9339 62.9004 18.2788C62.6337 17.3177 62.6248 16.5969 62.8767 16.1134C63.1256 15.6329 63.6413 15.2621 64.4207 15.001C64.6904 14.9002 65.1408 14.7637 65.778 14.5917C66.4151 14.4197 67.0879 14.2506 67.7961 14.0785C68.5044 13.9095 69.1742 13.7582 69.7995 13.6247C70.4277 13.4942 70.8663 13.4141 71.1153 13.3904C71.9273 13.2687 72.5555 13.3666 72.9971 13.681C73.4387 13.9955 73.7587 14.6451 73.9573 15.621C74.3218 17.291 74.707 19.2784 75.113 21.5802C75.519 23.882 75.9813 26.264 76.497 28.723C77.0126 31.182 77.6083 33.5877 78.281 35.934C78.9537 38.2833 79.7272 40.3597 80.5985 42.1661C80.6222 42.2136 80.6667 42.2373 80.6726 42.2432C81.1527 42.6644 82.1336 42.3678 82.4359 42.1987C83.3546 41.6885 83.1382 39.5499 82.6285 35.759C82.1188 31.977 81.7543 29.7048 81.7543 29.7048C81.3779 27.3022 80.9837 24.8164 80.5689 22.2387C80.151 19.664 79.7569 17.1753 79.3835 14.7756C79.0071 12.3729 78.7344 10.3499 78.5596 8.70662C78.4855 8.1015 78.4766 7.6002 78.53 7.20272C78.5803 6.80524 78.7107 6.47302 78.9211 6.20309C79.1316 5.93316 79.4338 5.71366 79.8339 5.54458C80.234 5.3755 80.7437 5.21533 81.366 5.06702L91.1782 2.70883C91.9754 2.51899 92.6659 2.53679 93.2497 2.75926C93.8335 2.9847 94.2277 3.51269 94.4262 4.34621C94.4499 4.45003 94.4707 4.94836 94.4825 5.84418C94.4944 6.73999 94.5092 7.9087 94.527 9.35031C94.5448 10.7949 94.5596 12.4293 94.5774 14.2565C94.5952 16.0837 94.5981 17.9703 94.5892 19.9161C94.5803 21.862 94.5744 23.7871 94.5744 25.6915C94.5744 27.5958 94.5626 29.3489 94.5448 30.9477C94.524 32.5465 94.4974 33.9169 94.4618 35.0619C94.441 35.6789 94.4055 36.4412 94.3373 37.3993C94.1536 39.98 94.0588 41.2703 93.7209 42.3767C93.4335 43.3111 92.82 44.7616 91.3531 46.3248C90.3959 47.1316 88.6563 48.3567 86.1906 48.8817C84.9726 49.1428 82.2758 49.7182 79.7094 48.3241C78.0914 47.4431 77.2527 46.1765 76.1799 44.551C74.9204 42.6467 74.2625 40.861 73.9069 39.6567C74.0165 41.8576 74.0462 43.6967 74.0491 45.0642C74.0551 47.188 73.9928 47.9533 73.8447 48.7898C73.6135 50.089 73.3794 51.412 72.5407 52.6519C71.1212 54.755 68.7948 55.3868 67.8435 55.6537C66.3114 56.0868 65.0401 56.0364 64.2221 55.9949C63.4901 55.9593 62.0203 55.8762 60.4051 55.2236C57.8506 54.1914 56.4103 52.3315 55.2279 50.8039C54.4396 49.7835 53.8291 48.686 52.6141 46.488C52.0362 45.4468 51.8999 45.1443 50.2047 41.8191C49.3394 40.1224 48.4622 38.4079 47.5731 36.6815C46.6811 34.9551 45.8306 33.2703 45.0156 31.6329C44.7904 31.1791 44.1829 29.957 43.3324 28.2098C43.3324 28.2098 43.3264 28.198 43.3146 28.1772C42.8819 27.2873 42.5648 26.6199 42.5381 26.5576C42.1262 25.6855 40.6533 23.2146 39.9362 21.9569C37.4587 17.6262 37.4409 16.3893 37.598 15.6566L37.592 15.6536Z" fill="#F56F00"/>
<path d="M111.579 29.5595C111.559 31.3452 111.6 33.1724 111.713 35.0352C111.822 36.901 111.979 38.9655 112.181 41.2347C112.16 41.9793 111.935 42.5607 111.505 42.9789C111.076 43.3971 110.24 43.59 108.989 43.5544L101.945 43.3497C100.697 43.3141 99.8705 43.0738 99.4675 42.6289C99.0644 42.1869 98.8718 41.5907 98.8955 40.8491C99.2956 38.3011 99.6008 35.9874 99.8112 33.9081C100.019 31.8287 100.155 29.7849 100.211 27.7768C100.271 25.7686 100.256 23.6982 100.167 21.5684C100.081 19.4356 99.9268 8.66809 99.6779 6.03997C99.6986 5.29544 99.9238 4.71405 100.354 4.29581C100.78 3.87756 101.622 3.68475 102.87 3.72035L109.914 3.92502C111.161 3.96062 111.988 4.20088 112.391 4.64582C112.794 5.09076 112.987 5.68402 112.963 6.42558C112.821 7.65955 112.697 8.63842 112.622 9.20794C112.053 13.6573 112.264 18.175 111.914 22.6451C111.905 22.7401 111.879 23.0663 112.033 23.1494C112.136 23.2058 112.302 23.1494 112.531 22.9744C113.263 22.3989 114.078 21.9688 114.978 21.6841C115.879 21.3963 116.798 21.2302 117.738 21.1828C118.677 21.1353 119.619 21.2006 120.565 21.3756C121.51 21.5535 122.396 21.8175 123.22 22.1676C124.72 22.8083 125.807 23.7249 126.486 24.9203C127.164 26.1157 127.606 27.5602 127.81 29.248C128.015 30.9359 128.071 32.8283 127.982 34.9255C127.893 37.0226 127.813 39.274 127.742 41.6856C127.713 42.6971 127.39 43.3438 126.77 43.6226C126.151 43.9014 125.413 44.029 124.551 44.0052L118.221 43.8213C117.358 43.7976 116.626 43.6255 116.025 43.3111C115.423 42.9967 115.139 42.3323 115.168 41.3208C115.18 40.8758 115.23 40.4309 115.319 39.9859C115.405 39.541 115.485 39.0961 115.559 38.6541C115.707 37.5862 115.823 36.5095 115.897 35.4238C115.974 34.3382 116.028 33.2466 116.06 32.1461C116.069 31.7901 116.069 31.3066 116.06 30.6956C116.048 30.0845 115.968 29.4883 115.823 28.901C115.675 28.3166 115.459 27.8124 115.174 27.3852C114.89 26.9611 114.478 26.7386 113.944 26.7238C113.5 26.7119 113.117 26.8187 112.797 27.0471C112.477 27.2755 112.211 27.5513 111.991 27.8717C111.742 28.281 111.606 28.8446 111.585 29.5565L111.579 29.5595Z" fill="#F56F00"/>
<path d="M146.101 38.7016C146.306 37.6397 146.181 36.7409 145.725 36.0023C145.268 35.2666 144.622 34.6526 143.784 34.1602C142.945 33.6708 141.985 33.2822 140.906 32.9915C139.827 32.7008 138.77 32.4606 137.738 32.2648C137.175 32.1669 136.796 32.0126 136.597 31.805C136.402 31.5974 136.298 31.3423 136.292 31.0397C136.283 30.7372 136.351 30.399 136.496 30.0252C136.639 29.6485 136.775 29.2303 136.9 28.7705C137.169 27.7946 137.403 27.0323 137.605 26.4865C137.806 25.9407 138.035 25.5491 138.289 25.3059C138.544 25.0627 138.85 24.9529 139.202 24.9796C139.555 25.0063 140.017 25.1012 140.589 25.2644C141.988 25.6797 143.434 26.1098 144.934 26.5577C146.43 27.0056 147.873 27.5217 149.26 28.1031C150.647 28.6875 151.904 29.3578 153.027 30.1202C154.15 30.8795 155.042 31.7664 155.703 32.7779C156.364 33.7894 156.725 34.9671 156.788 36.3078C156.85 37.6486 156.494 39.1791 155.721 40.8966C154.918 42.6971 154.331 44.379 153.96 45.9333C153.587 47.4877 153.412 48.7899 153.433 49.834C153.451 50.0594 153.436 50.3531 153.391 50.715C153.347 51.0768 153.208 51.415 152.977 51.7294C152.742 52.0438 152.384 52.2663 151.901 52.3998C151.415 52.5333 150.745 52.471 149.892 52.21C148.774 51.8926 147.808 51.5692 146.993 51.2459C146.175 50.9196 145.506 50.5666 144.975 50.181C144.448 49.7954 144.071 49.3475 143.855 48.8314C143.636 48.3182 143.585 47.7012 143.704 46.9864C143.742 46.6868 143.736 46.5177 143.686 46.4851C143.633 46.4524 143.499 46.5236 143.283 46.7016C142.346 47.4194 141.318 47.8792 140.198 48.078C139.078 48.2767 137.975 48.2648 136.891 48.0364C135.806 47.808 134.787 47.3898 133.832 46.7817C132.878 46.1736 132.078 45.4291 131.435 44.5481C130.792 43.6671 130.365 42.6823 130.158 41.5878C129.947 40.4962 130.054 39.3275 130.475 38.0876C130.943 36.7083 131.616 35.6552 132.49 34.9315C133.364 34.2077 134.333 33.736 135.397 33.5165C136.461 33.297 137.554 33.2941 138.678 33.5017C139.801 33.7123 140.85 34.0623 141.831 34.5518C142.809 35.0442 143.653 35.6523 144.365 36.382C145.073 37.1117 145.529 37.871 145.731 38.663C145.876 39.2474 146 39.2592 146.098 38.6927L146.101 38.7016ZM143.935 42.3026C144.107 41.8903 144.089 41.4602 143.879 41.0093C143.668 40.5614 143.339 40.2589 142.889 40.1076C142.24 39.8881 141.632 39.9237 141.06 40.2144C140.488 40.508 140.094 40.9767 139.875 41.6263C139.682 42.1899 139.706 42.7238 139.943 43.2281C140.18 43.7324 140.58 44.0824 141.143 44.2752C141.733 44.4769 142.308 44.3582 142.865 43.9192C143.422 43.4802 143.778 42.9404 143.935 42.3026Z" fill="#F56F00"/>
<path d="M164.667 34.1662C164.972 33.9556 165.349 33.6678 165.796 33.3119C166.244 32.953 166.739 32.5614 167.287 32.1372C167.965 31.5796 168.558 31.1524 169.056 30.8558C169.557 30.5592 170.037 30.3753 170.505 30.31C170.97 30.2448 171.468 30.2952 172.002 30.4643C172.532 30.6333 173.184 30.9092 173.955 31.2978C174.565 31.6063 175.096 31.9059 175.546 32.2025C175.997 32.4961 176.323 32.8432 176.521 33.2436C176.72 33.6441 176.773 34.1306 176.687 34.7031C176.598 35.2755 176.308 35.9875 175.813 36.8358C175.573 37.2481 175.309 37.7049 175.022 38.2121C174.734 38.7164 174.423 39.2681 174.088 39.8673L177.514 41.5967C178.124 41.9052 178.483 42.3026 178.587 42.7891C178.69 43.2756 178.637 43.7146 178.424 44.1061C178.21 44.4977 177.87 44.7943 177.404 44.9901C176.939 45.1888 176.426 45.1473 175.869 44.8655L172.325 43.0768C171.723 44.207 171.101 45.3757 170.458 46.5859C169.815 47.7962 169.213 48.9589 168.65 50.0742C168.087 51.1896 167.586 52.2367 167.145 53.2155C166.703 54.1914 166.362 55.019 166.119 55.6983C165.944 56.1788 165.909 56.5437 166.015 56.7958C166.119 57.0479 166.285 57.2052 166.502 57.2674C166.721 57.3268 166.958 57.2882 167.21 57.1488C167.462 57.0094 167.642 56.8017 167.749 56.5229C168.111 55.7398 168.567 55.2118 169.121 54.9389C169.672 54.669 170.238 54.5711 170.816 54.6453C171.394 54.7194 171.937 54.9508 172.44 55.3394C172.944 55.728 173.297 56.1877 173.492 56.7217C173.691 57.2556 173.691 57.831 173.495 58.448C173.3 59.068 172.796 59.6553 171.984 60.21C171.225 60.7261 170.23 60.999 169 61.0287C167.77 61.0583 166.478 60.8804 165.121 60.4977C163.766 60.1151 162.441 59.5544 161.146 58.8188C159.851 58.0832 158.767 57.2111 157.893 56.2026C157.018 55.194 156.44 54.0787 156.156 52.8536C155.874 51.6286 156.073 50.3382 156.757 48.9827C157.321 47.8673 157.827 46.8558 158.284 45.9511C158.74 45.0464 159.176 44.1773 159.599 43.3408C160.02 42.5043 160.441 41.65 160.865 40.778C161.286 39.9088 161.718 38.9685 162.16 37.9571L161.843 37.7969C161.469 37.61 161.138 37.3163 160.838 36.9159C160.542 36.5154 160.566 35.9697 160.912 35.2785C161.126 34.8543 161.437 34.5518 161.843 34.3738C162.249 34.1958 162.717 34.2077 163.251 34.4094C163.529 34.5162 163.775 34.5399 163.988 34.4806C164.202 34.4213 164.427 34.3204 164.667 34.1721V34.1662Z" fill="#F56F00"/>
<path d="M203.777 58.9107C201.777 57.5344 199.726 56.3212 197.619 55.2711C195.512 54.2211 193.295 53.2778 190.969 52.4413C190.628 52.3286 190.331 52.3049 190.077 52.3731C189.819 52.4413 189.65 52.5718 189.57 52.7617C189.487 52.9545 189.496 53.1592 189.596 53.3816C189.694 53.6011 189.922 53.788 190.278 53.9422C191.223 54.3813 192.418 54.8944 193.864 55.4817C195.31 56.072 196.783 56.7691 198.283 57.573C201.196 59.0828 203.19 60.8448 204.266 62.8618C205.342 64.8789 205.294 67.2549 204.124 69.9898C203.457 71.55 202.464 72.6713 201.151 73.3535C199.838 74.0387 198.339 74.3887 196.647 74.4065C194.955 74.4243 193.156 74.187 191.25 73.6917C189.342 73.1963 187.46 72.5496 185.602 71.7517C183.744 70.9538 181.98 70.0669 180.309 69.091C178.64 68.1151 177.206 67.1748 176.009 66.273C175.395 65.8162 174.963 65.4098 174.708 65.0598C174.453 64.7068 174.323 64.3776 174.311 64.0632C174.299 63.7517 174.379 63.4135 174.551 63.0487C174.723 62.6838 174.906 62.2389 175.102 61.705L177.411 56.428C177.657 55.8525 177.87 55.3957 178.051 55.0516C178.231 54.7075 178.424 54.4999 178.634 54.4287C178.842 54.3575 179.123 54.402 179.47 54.5711C179.82 54.7372 180.3 55.0487 180.913 55.5055C183 56.9827 185.216 58.2611 187.572 59.3349C189.925 60.4117 192.151 61.3016 194.243 62.0046C194.637 62.141 194.957 62.1647 195.206 62.0787C195.455 61.9897 195.618 61.8503 195.701 61.6605C195.784 61.4706 195.767 61.26 195.654 61.0346C195.541 60.8092 195.319 60.6253 194.993 60.4829C193.68 59.9193 192.409 59.3824 191.17 58.8663C189.934 58.3531 188.755 57.8221 187.632 57.2734C186.343 56.6564 185.208 55.9415 184.23 55.1317C183.249 54.3219 182.496 53.4172 181.971 52.4146C181.447 51.412 181.183 50.2937 181.177 49.0598C181.171 47.8258 181.491 46.4584 182.137 44.9545C182.795 43.4239 183.747 42.3323 184.994 41.6856C186.242 41.039 187.661 40.7097 189.253 40.6949C190.844 40.683 192.548 40.9114 194.371 41.386C196.19 41.8606 197.977 42.4658 199.732 43.2014C201.486 43.94 203.166 44.7409 204.77 45.607C206.373 46.4732 207.76 47.2711 208.936 48.0038C209.822 48.5792 210.32 49.1725 210.43 49.7865C210.54 50.4005 210.43 51.0917 210.101 51.857L207.458 57.9111C207.235 58.4302 207.034 58.8633 206.853 59.2074C206.672 59.5515 206.465 59.7769 206.222 59.8837C205.982 59.9905 205.677 59.9667 205.309 59.8066C204.942 59.6493 204.429 59.3498 203.777 58.9048V58.9107Z" fill="#F56F00"/>
<path d="M209.885 73.1784C210.312 71.5618 210.667 70.1676 210.949 68.996C211.23 67.8213 211.479 66.7505 211.696 65.7746C211.909 64.8017 212.087 63.8643 212.226 62.9655C212.365 62.0668 212.487 61.1057 212.591 60.0794C212.694 59.053 212.789 57.9051 212.878 56.6355C212.967 55.366 213.071 53.8472 213.195 52.0823C213.334 51.3526 213.646 50.8127 214.138 50.4657C214.627 50.1186 215.486 50.0623 216.713 50.2936L223.639 51.6047C224.865 51.8361 225.645 52.2039 225.974 52.7052C226.303 53.2065 226.398 53.8235 226.258 54.5532C225.666 56.4101 225.1 58.4004 224.56 60.5243C224.021 62.6481 223.547 64.7245 223.132 66.7535C222.717 68.7824 222.367 70.6749 222.08 72.4398C221.792 74.2018 221.585 75.6641 221.454 76.821C221.372 77.7435 221.484 78.4613 221.795 78.9774C222.106 79.4906 222.498 79.7843 222.969 79.8584C223.44 79.9326 223.914 79.7813 224.394 79.4016C224.874 79.0249 225.227 78.402 225.452 77.5329C225.843 76.4265 226.235 74.9997 226.623 73.2555C227.014 71.5114 227.373 69.6189 227.699 67.5751C228.025 65.5314 228.309 63.4283 228.552 61.2629C228.795 59.0975 228.979 57.0419 229.106 55.096C229.246 54.3663 229.56 53.8265 230.049 53.4794C230.538 53.1324 231.397 53.076 232.624 53.3074L239.55 54.6185C240.777 54.8498 241.553 55.2176 241.882 55.7189C242.211 56.2202 242.306 56.8372 242.169 57.5669C241.639 59.2547 241.183 60.7052 240.8 61.9214C240.418 63.1376 240.089 64.241 239.81 65.2318C239.532 66.2255 239.295 67.1628 239.096 68.0497C238.898 68.9366 238.723 69.874 238.566 70.8588C238.409 71.8436 238.249 72.9352 238.083 74.1306C237.917 75.326 237.739 76.7557 237.546 78.4139C237.303 79.7012 236.696 80.7513 235.724 81.567C234.752 82.3827 233.563 82.9849 232.159 83.3675C230.754 83.7531 229.204 83.9519 227.506 83.9608C225.808 83.9726 224.098 83.8154 222.376 83.4891C220.622 83.1569 218.944 82.6645 217.344 82.0119C215.744 81.3594 214.351 80.5911 213.174 79.6982C211.995 78.8084 211.094 77.8117 210.472 76.7112C209.846 75.6078 209.654 74.4272 209.894 73.1695L209.885 73.1784Z" fill="#F56F00"/>
<path d="M256.605 74.1812C256.61 74.985 256.628 75.7385 256.655 76.4385C256.679 77.1385 256.72 77.8534 256.773 78.5861C256.827 79.3187 256.904 80.1078 256.999 80.9591C257.093 81.8104 257.185 82.7893 257.274 83.8927C257.254 84.6373 257.028 85.2186 256.602 85.6399C256.172 86.0611 255.336 86.2539 254.086 86.2183L247.041 86.0225C245.794 85.9869 244.967 85.7496 244.561 85.3047C244.155 84.8627 243.965 84.2694 243.986 83.5249C244.383 80.9739 244.685 78.6602 244.893 76.5809C245.1 74.5015 245.231 72.4578 245.284 70.4496C245.34 68.4414 245.322 66.371 245.234 64.2382C245.142 62.1084 244.97 59.7265 244.715 57.1014C244.736 56.3569 244.958 55.7755 245.388 55.3543C245.814 54.936 246.653 54.7402 247.904 54.7758L266.319 55.286C267.804 55.3276 269.057 55.8022 270.074 56.7069C271.09 57.6146 271.849 58.7299 272.347 60.0528C272.845 61.3788 273.058 62.8115 272.987 64.3598C272.916 65.9053 272.533 67.3469 271.84 68.6817C271.149 70.0165 270.121 71.1348 268.758 72.0366C267.395 72.9383 265.655 73.404 263.542 73.4337C262.798 73.4426 261.847 73.4337 260.688 73.3981C259.53 73.3654 258.474 73.3358 257.523 73.312C256.928 73.2943 256.622 73.5849 256.607 74.1812H256.605ZM257.627 69.4767C258.67 69.3877 259.503 68.9101 260.122 68.0499C260.742 67.1897 261.171 66.196 261.408 65.0718C261.648 63.9475 261.717 62.8263 261.613 61.705C261.509 60.5868 261.257 59.7236 260.857 59.1155C260.543 58.632 260.173 58.2998 259.746 58.1248C259.319 57.9497 258.919 57.8875 258.546 57.9349C258.172 57.9853 257.84 58.1455 257.55 58.4214C257.259 58.6972 257.108 59.0413 257.096 59.4596C257.088 59.7562 257.067 60.2249 257.034 60.8656C257.002 61.5063 256.975 62.2419 256.951 63.0755C256.928 63.909 256.895 64.7929 256.856 65.7303C256.815 66.6676 256.782 67.6109 256.756 68.5631C256.738 69.2186 257.025 69.5241 257.624 69.4796L257.627 69.4767Z" fill="#F56F00"/>
<path d="M269.072 44.4472C271.383 22.8913 256.142 3.2843 234.544 0.365496C213.657 -2.45542 194.368 11.3466 189.97 31.6092C203.67 38.2922 235.045 50.7001 269.072 44.4472Z" fill="#FFBE00"/>
<path opacity="0.3" d="M269.072 44.4471C270.355 32.4812 266.224 21.1234 258.608 12.8801C247.933 29.7345 222.13 39.363 189.97 31.6091C203.67 38.2921 235.045 50.7 269.072 44.4471Z" fill="#FF7B31"/>
<path d="M174.189 120.686C159.585 118.939 149.026 120.716 142.085 122.659C133.61 125.032 129.908 127.829 121.329 127.992C113.677 128.14 107.845 126.18 100.493 123.451C94.933 121.386 87.3257 118.088 79.2383 112.891C87.8176 112.701 94.5063 111.544 99.0938 110.491C103.394 109.506 104.369 108.957 112.302 106.914C121.362 104.582 125.89 103.416 128.981 103.325C136.677 103.093 142.773 105.312 148.404 107.359C152.475 108.839 155.273 110.286 160.874 113.184C166.514 116.1 171.033 118.752 174.186 120.683L174.189 120.686Z" fill="url(#paint2_linear_2178_1311)"/>
<defs>
<linearGradient id="paint0_linear_2178_1311" x1="81.0935" y1="148.893" x2="118.832" y2="68.1954" gradientUnits="userSpaceOnUse">
<stop stop-color="#BEE5F4"/>
<stop offset="0.67" stop-color="#82BFD2"/>
<stop offset="0.76" stop-color="#7FBCD0"/>
<stop offset="0.81" stop-color="#76B6CC"/>
<stop offset="0.86" stop-color="#67AAC6"/>
<stop offset="0.9" stop-color="#529ABD"/>
<stop offset="0.94" stop-color="#3685B1"/>
<stop offset="0.98" stop-color="#156BA2"/>
<stop offset="1" stop-color="#005B99"/>
</linearGradient>
<linearGradient id="paint1_linear_2178_1311" x1="178.675" y1="47.0574" x2="150.291" y2="129.67" gradientUnits="userSpaceOnUse">
<stop stop-color="#BEE5F4"/>
<stop offset="0.36" stop-color="#82BFD2"/>
<stop offset="0.47" stop-color="#7DBBD0"/>
<stop offset="0.58" stop-color="#71B2CA"/>
<stop offset="0.69" stop-color="#5DA2C1"/>
<stop offset="0.81" stop-color="#408CB5"/>
<stop offset="0.92" stop-color="#1B70A5"/>
<stop offset="0.99" stop-color="#005B99"/>
</linearGradient>
<linearGradient id="paint2_linear_2178_1311" x1="117.429" y1="133.589" x2="128.538" y2="98.1275" gradientUnits="userSpaceOnUse">
<stop stop-color="#BEE5F4"/>
<stop offset="0.67" stop-color="#82BFD2"/>
<stop offset="0.76" stop-color="#7FBCD0"/>
<stop offset="0.81" stop-color="#76B6CC"/>
<stop offset="0.86" stop-color="#67AAC6"/>
<stop offset="0.9" stop-color="#529ABD"/>
<stop offset="0.94" stop-color="#3685B1"/>
<stop offset="0.97" stop-color="#156BA2"/>
<stop offset="0.99" stop-color="#005B99"/>
</linearGradient>
</defs>
</svg>
