<?xml version="1.0" encoding="UTF-8"?>
<svg id="Layer_1" xmlns="http://www.w3.org/2000/svg" version="1.1" viewBox="0 0 300 100">
  <!-- Generator: Adobe Illustrator 29.8.3, SVG Export Plug-In . SVG Version: 2.1.1 Build 3)  -->
  <defs>
    <style>
      .st0 {
        fill: #fff;
      }
    </style>
  </defs>
  <path class="st0" d="M211.4,51.4l-5.8,36.2h-7.3l.4-2.9c-6.1,6.1-17.7,3.3-18.6-5.8-1-9.9,6.2-19.4,16.6-18.3s3.4,1.3,5,3,0,.5.4,0l1.9-12.3h7.4ZM193.9,68.1c-7,1-8.7,12.6-.9,12.6s10.7-14,.9-12.6Z"/>
  <path class="st0" d="M85,87.6l5-33.8c6.4.6,17.1-1.7,22.5,2.4s4.1,14.1-.9,18.5-11.5,4-17.7,3.9l-1.5,9h-7.5ZM95.2,71.5h7.5c1.9,0,4.4-2.1,5-3.8,2.3-7.3-6.6-6.2-11-6.2l-1.4,10Z"/>
  <path class="st0" d="M241.9,61l-4.4,26.6h-7.3l.4-2.9c-5.1,5.3-15.6,4.1-18.1-3.3s2.5-18.7,11.1-20.5,7.9-.6,10.1,3l.8-2.9h7.3ZM225.6,68.1c-7.6,1.2-8.4,14.5,1.1,12.4s7.9-13.8-1.1-12.4Z"/>
  <path class="st0" d="M136,87.6c-.5-.1.2-2.3.1-2.9-6.3,6.2-17.8,3.3-18.6-6s6.1-19.1,16.5-18.1,4.1,1.6,5.6,3.5l.4-3.1h7.4l-4.1,26.6h-7.3ZM131.3,68.1c-7,1-8.8,12.6-.9,12.6,8.8,0,10.7-14,.9-12.6Z"/>
  <path class="st0" d="M153.1,61h7.4l-.4,3.5c4.9-5.3,15.6-6,16.7,2.8-.7,6.2-1.4,13.1-2.7,19.1s0,.9-.4,1.2h-7l-.3-.5,2.4-15.8c-.8-4.7-6.1-4-8.6-1s-2.8,11.8-3.8,16.1,0,.9-.4,1.2h-7l4-26.6Z"/>
  <polygon class="st0" points="253.1 61 256.2 77 264.9 61 272.6 61 253.1 97.3 246 97.3 251.1 87 245.1 61 253.1 61"/>
  <path class="st0" d="M90.5,33c-.4.1-.5-.1-.8-.3-2.5-1.7-4.9-3.9-7.4-5.7-4.7-3.4-10-6.8-15.9-7.5-.4.4,1.8,2.5,2,3-1.6,0-3.1-1.5-4.5-2.3-11.1-5.9-23.9-8.6-36.5-8.3s-2.6.3-4.1.2-.6.2-.5-.3c6.4-3,13.8-1.9,20.7-2.2v-.6s-4.3-1.2-4.3-1.2c0-.3,0-.4.4-.6,2.1-1,11.4.7,14,1.4s4.1,1.6,6.3,1.8c-1.8-2.5-4.7-3.5-7.2-5.2,0-.5.2-.3.5-.3,1.3-.1,2.7.4,3.9.8,11.4,3.3,25.8,13.5,31.8,23.8s1.4,2.2,1.6,3.5Z"/>
  <path class="st0" d="M73.7,43.5c-.2-.2-3.2,0-3.4.7-3.5,6.1-6.4,12.5-9.8,18.6s-2.4,4.7-3.2,5.4-1.4.7-2.2.5-4.6-2.4-5-3-.6-1.4-.4-2.3l14-23c-1.3-.5-3.8-2.6-5-2.8-2-.3-6,2.6-7-.1s-1.7-4.9.6-5.3c4.6-.7,10.2-3.3,14.7-3.7s3.1.9,4.3,1.6c2.2,1.2,4.2,2.7,6.4,3.8l.8,2.3c.7.2,1.2-.4,2-.2s3.6,1.9,3.7,2.2l-5.8,9.9c-.3.1-3.5-1.8-3.9-2.2-.5-.6-.6-1.7-.7-2.5ZM77.8,45.5l3.8-6c.4-.7-.8-1.5-1.4-1.5s-2.5.7-2.9.5c-.8-.9-.4-2.5-1.2-3.3l-7.8-4.6h-.8c0-.1-14.7,3.5-14.7,3.5l.6,2.6c2,.4,4-1.4,5.9-.9l10.6,5.9c1.5.5,3.1-.7,4.5-.2s.9,4,3.5,3.9ZM56.1,66.8l12.5-23.4c0-.4-2.7-1.9-3.1-1.7l-13.8,22.1c0,.2-.1.4,0,.7.1.4,4.1,2.6,4.5,2.4Z"/>
  <path class="st0" d="M21.9,16.9c-1.4,1.6-4.1,1.6-6.1,2.2s-3.7,1.4-5.6,2.1c0-.4.2-.5.4-.7.6-.6,2.8-1.8,3.7-2.3,2.4-1.1,4.9-2,7.6-1.3Z"/>
</svg>