<?xml version="1.0" encoding="UTF-8"?>
<svg id="Layer_1" xmlns="http://www.w3.org/2000/svg" version="1.1" viewBox="0 0 300 100">
  <!-- Generator: Adobe Illustrator 29.8.3, SVG Export Plug-In . SVG Version: 2.1.1 Build 3)  -->
  <defs>
    <style>
      .st0 {
        fill: #fff;
      }
    </style>
  </defs>
  <path class="st0" d="M67.3,35.8c-.3,0-.5,0-.7-.3-1.8-1.7-3.5-3.8-5.3-5.4-3.4-3.2-7.2-6.6-11.9-7.9-.3.3,1.2,2.2,1.2,2.7-1.4-.2-2.3-1.6-3.3-2.4-8.3-6.1-18.2-9.8-28.5-11.1s-2.2,0-3.4-.4-.5,0-.5-.3c5.5-1.7,11.3,0,17,.7v-.5l-3.2-1.5c0-.2,0-.3.4-.4,1.8-.5,9.1,2,11.1,2.8s3.2,1.9,4.8,2.2c-1.2-2.2-3.3-3.3-5.2-5,0-.5,0-.2.5,0,1,0,2.1.6,3.1,1.2,8.8,4,19.2,14,22.7,23,3.6,9,.8,1.9,1,3h0l.2-.3h0Z"/>
  <path class="st0" d="M52.5,42.1s-2.6-.4-2.8.2c-3.5,4.5-6.7,9.3-10.2,13.8-3.4,4.5-2.4,3.5-3.2,4s-1.2.4-1.9.2-3.4-2.4-3.7-3.1-.3-1.2,0-1.9l14.1-16.9c-.9-.6-2.7-2.6-3.7-2.9-1.6-.4-5.2,1.4-5.6-.8s-.8-4.2,1.1-4.2c3.7,0,8.6-1.4,12.3-1.3s2.4,1.1,3.3,1.9c1.6,1.3,3,2.7,4.7,3.8l.4,2c.6.2,1-.1,1.6.1s2.6,2,2.8,2.2l-5.9,7.2c-.2,0-2.5-1.9-2.9-2.3-.4-.6-.3-1.5-.3-2.1h0ZM55.5,44.3l3.8-4.4c.4-.5-.5-1.3-.9-1.3s-2.1.3-2.4,0c-.6-.8,0-2-.6-2.8l-5.7-4.6h-.7c0-.1-12.3.9-12.3.9l.2,2.2c1.5.5,3.4-.6,4.9,0l7.8,6c1.1.7,2.6-.2,3.6.4s.2,3.4,2.3,3.6h.2v-.2h-.2v.2ZM35.4,58.8l12.9-17.3c0-.3-1.9-1.9-2.3-1.8l-13.7,16.1v.6c0,.3,2.9,2.7,3.2,2.4,0,0,0,0-.1,0Z"/>
  <path class="st0" d="M14,14.5c-1.3,1.2-3.6.9-5.2,1s-3.2.6-4.7,1c0-.3.2-.5.4-.5.6-.4,2.5-1.1,3.3-1.4,2-.6,4.2-1,6.3,0h-.1,0Z"/>
  <g>
    <path class="st0" d="M85,44c2.4,0,4.4.3,6.3,1,1.8.7,3.3,1.6,4.5,2.8s2,2.7,2.5,4.3c.5,1.7.6,3.6.2,5.7-.3,2.1-1,4-2,5.7-1,1.7-2.3,3.2-3.9,4.5-1.6,1.2-3.4,2.2-5.4,2.9-2,.7-4.2,1-6.6,1h-9.7l-1.9,12.3h-5.1l6.4-40.2h14.8s0,0-.1,0ZM80.8,67.1c1.6,0,3.1-.2,4.5-.7,1.4-.4,2.6-1.1,3.7-1.9s1.9-1.8,2.6-2.9c.7-1.1,1.1-2.4,1.4-3.8.2-1.4,0-2.7-.2-3.8-.3-1.1-.9-2.1-1.7-2.9-.8-.8-1.9-1.4-3.1-1.8-1.2-.4-2.7-.7-4.3-.7h-9.2l-2.9,18.3h9.2v.2Z"/>
    <path class="st0" d="M130.4,84.2h-4.8l.8-4.9c-1.4,1.7-3.1,3-5,4-2,1-4.3,1.5-7.1,1.5s-4.2-.4-5.9-1.3c-1.8-.8-3.2-2-4.4-3.4-1.1-1.4-1.9-2.9-2.3-4.4s-.6-2.9-.6-4,0-1.8.2-2.7c.4-2.2,1.1-4.3,2.2-6.3,1.1-1.9,2.4-3.6,4-5.1,1.6-1.4,3.4-2.6,5.4-3.4,2-.8,4.1-1.3,6.3-1.3s5,.5,6.6,1.5,2.9,2.3,3.8,4l.8-4.9h4.8l-4.9,30.7h0ZM128.4,66.8c0-1.3-.2-2.5-.6-3.6s-1-2.1-1.8-2.9-1.8-1.5-2.9-2c-1.2-.5-2.5-.7-4-.7s-3.2.3-4.7.9c-1.4.6-2.7,1.5-3.8,2.5-1.1,1-2,2.2-2.7,3.6s-1.2,2.8-1.4,4.3c0,.6-.2,1.3-.2,1.9s0,1.7.4,2.7c.2,1,.7,2.1,1.5,3.1s1.8,1.8,3,2.5c1.3.6,2.7.9,4.4.9s2.9-.2,4.2-.7c1.3-.5,2.5-1.1,3.5-1.9,1.1-.8,2-1.8,2.7-2.9.8-1.1,1.3-2.3,1.7-3.5l.7-4.1h0Z"/>
    <path class="st0" d="M144.9,53.4h4.8l-.9,5.9c1.5-2,3.4-3.6,5.6-4.7,2.2-1.2,4.5-1.7,7-1.7s3.3.3,4.5.9c1.3.6,2.3,1.4,3,2.4.8,1,1.3,2.2,1.5,3.6s.3,2.9,0,4.5l-3.2,20h-4.8l3-19.1c.4-2.5,0-4.4-1.2-5.7s-3-2-5.2-2-2.8.3-4,1c-1.3.7-2.5,1.5-3.5,2.6s-1.9,2.2-2.7,3.5c-.7,1.3-1.2,2.6-1.5,3.9l-2.5,15.7h-4.8l4.9-30.7h0Z"/>
    <path class="st0" d="M176.9,68.9c.4-2.2,1.1-4.3,2.2-6.3,1.1-1.9,2.4-3.6,4-5.1,1.6-1.4,3.4-2.6,5.4-3.4,2-.8,4.1-1.3,6.3-1.3s5,.5,6.6,1.5,2.9,2.3,3.7,4l2.8-17.3h4.8l-6.8,43.2h-4.8l.8-4.9c-1.4,1.7-3.1,3-5,4s-4.3,1.4-7,1.4-4.2-.4-5.9-1.3c-1.8-.8-3.2-2-4.4-3.4-1.1-1.4-2-3.1-2.4-5-.5-1.9-.5-4-.2-6.1h-.1ZM203.9,66.5c0-1.3-.2-2.5-.7-3.6s-1.1-2-1.9-2.8c-.8-.8-1.8-1.4-2.9-1.8-1.1-.4-2.4-.6-3.8-.6s-3.2.3-4.7.9c-1.4.6-2.7,1.5-3.8,2.5s-2,2.2-2.7,3.6-1.2,2.8-1.4,4.3c-.2,1.4-.2,2.8,0,4.2.3,1.3.8,2.5,1.6,3.5s1.8,1.8,3,2.5,2.7.9,4.4.9,2.8-.2,4.1-.7,2.4-1.1,3.5-1.9,1.9-1.7,2.7-2.7,1.3-2.2,1.7-3.4l.8-4.9h0Z"/>
    <path class="st0" d="M244.6,84.2h-4.8l.8-4.9c-1.4,1.7-3.1,3-5,4-2,1-4.3,1.5-7.1,1.5s-4.2-.4-5.9-1.3c-1.8-.8-3.2-2-4.4-3.4-1.1-1.4-1.9-2.9-2.3-4.4-.4-1.5-.6-2.9-.6-4s0-1.8.2-2.7c.4-2.2,1.1-4.3,2.2-6.3,1.1-1.9,2.4-3.6,4-5.1,1.6-1.4,3.4-2.6,5.4-3.4,2-.8,4.1-1.3,6.3-1.3s5,.5,6.6,1.5c1.7,1,2.9,2.3,3.8,4l.8-4.9h4.8l-4.9,30.7h0ZM242.5,66.8c0-1.3-.2-2.5-.6-3.6-.4-1.1-1-2.1-1.8-2.9-.8-.8-1.8-1.5-2.9-2-1.2-.5-2.5-.7-4-.7s-3.2.3-4.7.9c-1.4.6-2.7,1.5-3.8,2.5s-2,2.2-2.7,3.6-1.2,2.8-1.4,4.3c-.1.6-.2,1.3-.2,1.9s.1,1.7.4,2.7c.2,1,.7,2.1,1.5,3.1s1.8,1.8,3,2.5,2.7.9,4.4.9,2.9-.2,4.2-.7,2.5-1.1,3.5-1.9c1.1-.8,2-1.8,2.7-2.9.8-1.1,1.3-2.3,1.7-3.5l.7-4.1h0Z"/>
    <path class="st0" d="M254.7,96.9l7.3-13-6.8-30.5h5.3l5.1,23.9,13.2-23.9h5.3l-24.3,43.5h-5.1Z"/>
  </g>
</svg>